PathFileType  4	(X/Y/Z) C:\Users\antoi\Documents\MyRepositories\mobilecap\ResultsAnalysis
DataRate	CameraRate	NumFrames	NumMarkers	Units	OrigDataRate	OrigDataStartFrame	OrigNumFrames
100.0	100.0	7	51	mm	100.0	99	131
Frame#	Time	r_knee			r_shank_antsup			r_ankle			r_calc			r_5meta			r_toe			L_knee			L_shank_antsup			L_ankle			L_calc			L_5meta			L_toe			r_sh2			r_sh3			r_sh4			L_sh2			L_sh3			r_thigh1			r_thigh2			r_thigh3			r_thigh4			r_thigh5			L_thigh1			L_thigh2			L_thigh3			L_thigh4			r.ASIS			r.PSIS			L.ASIS			L.PSIS			C7			R_Shoulder			L_Shoulder			R_Sternum			L_Sternum			R_humerus			R_elbow_med			R_elbow_lat			R_forearm			R_wrist_radius			R_wrist_ulna			L_humerus			L_elbow_med			L_elbow_lat			L_forearm			L_wrist_radius			L_wrist_ulna			R_HJC			L_HJC			R_HJC_reg			L_HJC_reg			
		X1	Y1	Z1	X2	Y2	Z2	X3	Y3	Z3	X4	Y4	Z4	X5	Y5	Z5	X6	Y6	Z6	X7	Y7	Z7	X8	Y8	Z8	X9	Y9	Z9	X10	Y10	Z10	X11	Y11	Z11	X12	Y12	Z12	X13	Y13	Z13	X14	Y14	Z14	X15	Y15	Z15	X16	Y16	Z16	X17	Y17	Z17	X18	Y18	Z18	X19	Y19	Z19	X20	Y20	Z20	X21	Y21	Z21	X22	Y22	Z22	X23	Y23	Z23	X24	Y24	Z24	X25	Y25	Z25	X26	Y26	Z26	X27	Y27	Z27	X28	Y28	Z28	X29	Y29	Z29	X30	Y30	Z30	X31	Y31	Z31	X32	Y32	Z32	X33	Y33	Z33	X34	Y34	Z34	X35	Y35	Z35	X36	Y36	Z36	X37	Y37	Z37	X38	Y38	Z38	X39	Y39	Z39	X40	Y40	Z40	X41	Y41	Z41	X42	Y42	Z42	X43	Y43	Z43	X44	Y44	Z44	X45	Y45	Z45	X46	Y46	Z46	X47	Y47	Z47	X48	Y48	Z48	X49	Y49	Z49	X50	Y50	Z50	X51	Y51	Z51	

99	0.98000000	1212.52379	511.47268	-55.50494	1260.99171	478.50967	-68.16223	1267.10243	111.49575	-81.24101	1215.01569	66.15726	-126.56785	1408.60227	78.08259	-51.70555	1436.83724	112.28197	-107.21904	950.18910	486.02671	-347.56201	961.88059	395.42313	-352.61465	844.48392	94.57327	-278.47748	781.42446	61.47341	-223.33722	961.84618	39.61802	-301.00513	1007.24484	59.38324	-247.95108	1282.27676	366.52654	-78.42012	1199.80884	460.65465	-24.21381	1222.09844	346.96396	-21.08352	875.29443	421.26691	-363.75104	847.21171	304.41215	-349.33659	1166.29766	806.54845	-120.00393	1219.76143	710.21759	-113.89987	1220.07743	687.94919	-49.00560	1119.94291	787.36468	-21.01164	1172.08003	685.50029	-18.10791	1057.46772	797.43782	-380.00231	1035.78216	658.39437	-376.48795	945.12745	814.22797	-378.93055	921.74806	680.89122	-357.68776	1116.96914	952.19487	-85.85067	920.84955	982.01349	-147.92340	1111.82054	938.06996	-320.99215	916.94202	986.74002	-246.05946	989.59652	1458.31065	-223.72158	1033.41464	1424.05965	-59.32289	1056.51872	1402.29396	-375.55269	1089.89279	1355.15800	-196.05003	1095.84780	1350.37374	-234.51916	968.12675	1195.33514	32.00395	883.18109	1128.40336	-1.34875	912.13691	1121.81303	53.42104	920.47225	981.21598	78.54847	914.14396	871.28706	70.50888	884.27420	885.28005	101.40311	1106.39787	1181.96047	-454.55027	1089.32980	1063.25947	-414.82856	1111.20970	1076.11618	-469.76684	1247.64813	1019.76413	-462.44926	1341.06983	978.05416	-422.06264	1323.94070	943.93087	-446.16906	1041.49023	868.97350	-113.12925	1020.98172	871.64578	-302.67305	1049.39693	868.11430	-119.33888	1043.22051	875.58617	-274.52646	
100	0.99000000	1222.11747	507.65435	-53.86226	1271.49264	477.40194	-66.40787	1298.79520	111.02129	-82.56536	1249.60340	63.79450	-128.52327	1442.12985	85.30832	-52.88790	1468.25094	121.85543	-107.76359	956.48446	485.18545	-347.70953	967.13393	394.34476	-352.94547	845.13743	94.97269	-278.58885	781.55227	61.83615	-223.38670	961.87350	39.54827	-301.05068	1007.10380	59.08240	-247.96214	1298.88028	366.74427	-77.15737	1211.04495	456.16282	-22.88562	1239.24492	343.70726	-20.48273	880.74377	421.45238	-363.85856	850.80231	304.95010	-349.53797	1178.75977	801.78553	-119.71101	1229.61300	703.86060	-113.11292	1229.82783	682.38417	-48.08979	1131.47645	783.81785	-20.70209	1182.07573	681.29086	-16.87876	1067.91876	795.26443	-380.16533	1044.43871	656.58621	-376.55532	955.83570	813.56726	-379.53731	930.56906	680.47207	-357.45763	1130.05480	949.36288	-85.71177	933.58459	979.25819	-146.94490	1123.74262	936.02809	-320.95199	929.12903	984.56379	-245.03524	1002.07994	1455.92536	-223.07111	1046.00229	1421.69989	-58.82257	1068.89414	1399.88198	-374.73632	1102.34224	1352.63452	-195.48804	1108.22125	1347.81506	-233.95979	978.40009	1193.84427	32.85656	892.92817	1127.62219	-0.82352	921.30386	1121.01777	54.21463	928.05518	980.38608	79.78948	920.66427	870.55575	72.00310	890.64849	884.92917	102.69354	1120.62041	1180.50282	-454.21658	1104.88040	1061.36547	-414.97320	1126.93737	1074.44219	-469.81741	1264.58628	1021.62980	-461.08964	1358.57890	982.40804	-419.72306	1342.75666	947.90003	-444.22228	1054.36459	866.20826	-113.04256	1033.01365	869.56632	-302.48365	1062.46532	865.05148	-119.32190	1055.41859	873.44381	-274.48599	
101	1.00000000	1231.84454	503.87694	-52.28325	1281.80749	476.00536	-64.57975	1327.88571	111.02602	-84.16461	1281.48371	62.28938	-131.02530	1472.44140	92.09882	-53.91377	1496.62218	130.91771	-108.01438	963.44468	484.13491	-347.69352	972.90777	393.00756	-353.07643	845.87416	95.43358	-278.75778	781.69273	62.29963	-223.51591	961.94976	39.45804	-301.09355	1006.76398	58.70273	-247.89543	1314.45675	366.74795	-75.92184	1221.99022	451.73141	-21.73865	1255.27085	340.58228	-20.10688	886.90978	421.51558	-363.91003	854.94314	305.43241	-349.75012	1191.52910	797.15291	-119.28974	1239.90023	697.74907	-112.15615	1239.96334	677.00638	-47.05406	1143.29108	780.35901	-20.27883	1192.50039	677.21982	-15.48331	1078.52702	792.98241	-380.22111	1053.45866	654.63241	-376.61192	966.77684	812.65199	-380.15603	939.75331	679.76585	-357.14029	1143.29168	946.45600	-85.56361	946.43748	976.47853	-145.89759	1135.70532	933.82420	-320.90570	941.45395	982.24286	-243.94263	1014.62174	1453.47385	-222.31289	1058.64486	1419.22631	-58.16128	1081.29456	1397.32978	-373.84339	1114.90234	1350.03092	-194.81004	1120.64083	1345.17154	-233.28660	988.86156	1192.22902	33.82097	902.93656	1126.61075	-0.20240	930.78246	1120.00175	55.09210	936.20310	979.35219	81.07275	927.98889	869.59043	73.49726	897.83853	884.27847	103.94638	1134.66824	1178.85633	-453.75792	1120.17327	1059.31154	-414.93211	1142.38083	1072.57049	-469.63487	1281.06800	1023.10296	-459.73341	1375.53201	986.24203	-417.48970	1360.96059	951.39452	-442.37358	1067.36492	863.38074	-112.88290	1045.09904	867.33488	-302.20769	1075.57000	862.00924	-119.21008	1067.68382	871.13281	-274.36831	
102	1.01000000	1241.83470	500.23909	-50.90882	1292.11018	474.32647	-62.78921	1353.92811	111.12928	-86.02888	1310.13742	61.16727	-133.96147	1499.12006	97.83331	-54.70204	1521.72695	138.77780	-107.89104	971.15016	482.86335	-347.47557	979.25647	391.42540	-352.98450	846.71011	96.00462	-278.99838	781.87244	62.93839	-223.74199	962.07238	39.34289	-301.13772	1006.25409	58.23620	-247.75563	1329.08950	366.41135	-74.78995	1232.70954	447.42704	-20.92785	1270.11583	337.52420	-20.05657	893.83989	421.47892	-363.87026	859.66802	305.89386	-349.94926	1204.53492	792.91516	-118.65787	1250.86616	692.33394	-111.00830	1250.66246	672.12526	-45.89571	1155.41705	777.11307	-19.67251	1203.45113	673.42516	-14.01642	1089.28122	790.62608	-380.13356	1062.86981	652.55885	-376.59485	977.87349	811.46192	-380.58163	949.36302	678.74351	-356.69629	1156.66159	943.53985	-85.39353	959.41310	973.74430	-144.77533	1147.65582	931.45939	-320.84172	953.93768	979.79827	-242.76835	1027.23478	1451.00680	-221.44690	1071.31993	1416.67766	-57.34773	1093.71081	1394.69233	-372.88342	1127.54409	1347.38042	-194.00819	1133.12352	1342.49202	-232.49929	999.55017	1190.48801	34.87937	913.24055	1125.36973	0.50875	940.62607	1118.75612	56.03327	944.94407	978.10476	82.39232	936.12583	868.38143	74.99862	905.84435	883.31942	105.17598	1148.52352	1177.06544	-453.15524	1135.18839	1057.14393	-414.67755	1157.49967	1070.59591	-469.23311	1297.08104	1024.19020	-458.38202	1391.92965	989.52249	-415.37460	1378.52522	954.38348	-440.61633	1080.47783	860.55471	-112.61121	1057.21064	864.95810	-301.80485	1088.65950	859.07142	-118.95936	1079.98855	868.66056	-274.14027	
103	1.02000000	1252.23108	496.81650	-49.85604	1302.62482	472.35990	-61.16861	1376.56732	110.94642	-88.16572	1335.10743	59.99732	-137.17565	1521.84393	101.94766	-55.22161	1543.40931	144.77427	-107.40447	979.64293	481.38305	-347.03202	986.21793	389.64526	-352.66957	847.66440	96.74743	-279.31582	782.12184	63.84981	-224.07361	962.23547	39.19707	-301.18593	1005.68889	57.68744	-247.58166	1342.90852	365.60055	-73.85820	1243.35215	443.32163	-20.56445	1283.81307	334.47820	-20.39283	901.53867	421.39207	-363.70289	864.97365	306.38845	-350.10102	1217.70248	789.28300	-117.73865	1262.65414	687.93846	-109.66568	1262.03280	667.96647	-44.61303	1167.83264	774.15269	-18.83697	1214.95607	669.99741	-12.58559	1100.19419	788.23381	-379.87291	1072.70497	650.40239	-376.43213	989.07675	810.00404	-380.64024	959.44441	677.41175	-356.08338	1170.14315	940.68762	-85.18041	972.51460	971.11001	-143.57967	1159.55360	928.94897	-320.74756	966.58380	977.26924	-241.51517	1039.93102	1448.57212	-220.48018	1084.00389	1414.09966	-56.39900	1106.13802	1392.03704	-371.86751	1140.25749	1344.72757	-193.08400	1145.69423	1339.83250	-231.60406	1010.49938	1188.62773	36.00903	923.88511	1123.90086	1.29537	950.87405	1117.28630	57.02087	954.31273	976.64825	83.74023	945.09166	866.93625	76.50993	914.67056	882.06077	106.39235	1162.16253	1175.17706	-452.39468	1149.89716	1054.91638	-414.18940	1172.24884	1068.59183	-468.63388	1312.60421	1024.90674	-457.03249	1407.76622	992.22324	-413.38585	1395.41591	956.84119	-438.93750	1093.68742	857.79530	-112.19687	1069.33115	862.45611	-301.24510	1101.71379	856.28771	-118.53577	1092.31207	866.05275	-273.78006	
104	1.03000000	1263.18852	493.66355	-49.20226	1313.59346	470.09959	-59.85211	1395.59929	110.14665	-90.56794	1356.05401	58.47475	-140.48094	1540.46328	103.98643	-55.50675	1561.62377	148.34278	-106.67388	988.92585	479.72643	-346.35793	993.80038	387.73176	-352.15126	848.75899	97.72681	-279.70281	782.47182	65.14449	-224.50852	962.43301	39.01576	-301.24016	1005.23421	57.06832	-247.43774	1356.06599	364.19726	-73.22692	1254.13699	439.49527	-20.68729	1296.48884	331.41401	-21.12221	909.97238	421.32010	-363.37750	870.82993	306.98033	-350.16497	1230.97479	786.36891	-116.48560	1275.28499	684.69227	-108.14806	1274.10080	664.62957	-43.21505	1180.48127	771.49090	-17.76120	1226.98907	666.97167	-11.27848	1111.30502	785.84139	-379.41757	1082.99616	648.20201	-376.06052	1000.38987	808.31425	-380.23947	970.01864	675.81314	-355.25892	1183.71963	937.96935	-84.89411	985.74840	968.60874	-142.32038	1171.40555	926.32787	-320.60677	979.39257	974.70345	-240.19526	1052.71997	1446.20938	-219.42220	1096.68290	1411.54067	-55.33390	1118.57722	1389.43629	-370.80414	1153.05036	1342.12417	-192.04792	1158.37863	1337.24787	-230.61266	1021.73564	1186.66314	37.18604	934.92240	1122.20796	2.13480	961.55606	1115.61085	58.04076	964.34372	974.99884	85.10637	954.91041	865.27662	78.03168	924.32642	880.52505	107.59977	1175.56164	1173.23518	-451.46860	1164.26241	1052.68198	-413.45764	1186.58124	1066.60138	-467.85390	1327.60739	1025.27074	-455.67841	1423.03105	994.32955	-411.52855	1411.59560	958.74544	-437.32374	1106.98921	855.15925	-111.62011	1081.47777	859.86416	-300.51223	1114.75344	853.67795	-117.91892	1104.66385	863.35227	-273.27708	
105	1.04000000	1274.85056	490.81580	-48.97646	1325.22668	467.55472	-58.95270	1411.02746	108.52294	-93.17127	1372.83511	56.49537	-143.68302	1555.07972	103.66725	-55.65520	1576.49549	149.09732	-105.91211	998.97105	477.93630	-345.46645	1001.98297	385.75006	-351.46403	850.01962	99.00136	-280.14085	782.95297	66.93384	-225.03540	962.66232	38.79685	-301.30391	1005.03792	56.38723	-247.38868	1368.71614	362.13141	-72.97989	1265.30225	436.02931	-21.25632	1308.34172	328.33323	-22.20483	919.08350	421.32644	-362.87866	877.19595	307.73345	-350.10317	1244.33364	784.17249	-114.89718	1288.67057	682.52370	-106.49661	1286.81964	662.07777	-41.72759	1193.30454	769.09319	-16.46890	1239.49276	664.33034	-10.13725	1122.67027	783.47656	-378.75631	1093.76556	645.99093	-375.43918	1011.86696	806.44896	-379.37948	981.08420	674.01524	-354.18737	1197.38699	935.43843	-84.49973	999.12907	966.25506	-141.01192	1183.28938	923.65225	-320.39544	992.36996	972.15292	-238.82241	1065.60635	1443.94640	-218.27936	1109.36148	1409.04655	-54.16775	1131.03607	1386.95673	-369.69540	1165.94039	1339.62189	-190.91585	1171.19425	1334.78417	-229.53924	1033.28088	1184.61617	38.39012	946.40565	1120.29933	3.00052	972.69780	1113.75730	59.08076	975.06655	973.17978	86.47832	965.61504	863.43684	79.56344	934.82546	878.74303	108.79646	1188.70324	1171.27556	-450.37774	1178.24102	1050.48527	-412.48378	1200.45142	1064.64073	-466.90371	1342.05501	1025.29533	-454.31309	1437.70950	995.83824	-409.80419	1427.03337	960.07613	-435.76568	1120.39791	852.68692	-110.87360	1093.71357	857.23451	-299.60582	1127.84187	851.24253	-117.10247	1117.09280	860.61855	-272.62601	
